#!OML:ASF E:\Steps\Project 1\Capture day 1\Session 2\Subject.ASF
:FULLY-SPECIFIED
:DEGREES
32
root 9.5745 16.3316 9.61221 -152.322 -2.29409 178.138
lowerback -29.3473 -1.60038 -5.57416
upperback -3.64603 -1.24964 -0.833058
thorax 12.1937 -1.25536 1.68784
lowerneck -0.232787 0.431276 -3.22759
upperneck 8.11578 -0.382063 8.48894
head 2.69378 -0.233492 3.36388
rclavicle 1.25234e-014 -1.11319e-014
rhumerus -33.9833 -13.0784 -83.7338
rradius 40.278
rwrist -6.03013
rhand -7.77813 -54.5896
rfingers 7.12502
rthumb 18.1223 -443.765
lclavicle 1.25234e-014 -1.11319e-014
lhumerus -28.5534 -1.30648 86.0324
lradius 34.3482
lwrist 0.906679
lhand -21.3455 -12.9021
lfingers 7.12502
lthumb 5.04074 17.0179
rfemur -23.8315 7.53532 17.6553
rtibia 6.00989
rfoot -18.5358 -5.60497
rtoes -30.4509
lfemur -26.0374 -11.3833 -18.258
ltibia 7.40074
lfoot -6.85809 2.93862
ltoes -40.7595
33
root 9.57296 16.3283 9.60667 -152.243 -2.16653 178.201
lowerback -29.4171 -1.5433 -5.56368
upperback -3.68207 -1.18671 -0.828934
thorax 12.1822 -1.23006 1.70977
lowerneck -0.219142 0.420281 -3.25428
upperneck 8.08209 -0.405098 8.59402
head 2.683 -0.245187 3.40463
rclavicle 3.03147e-015 2.5842e-014
rhumerus -34.0603 -13.0576 -83.7353
rradius 39.9168
rwrist -5.71714
rhand -7.50477 -54.8172
rfingers 7.12502
rthumb 18.3853 -443.968
lclavicle 3.03147e-015 2.5842e-014
lhumerus -28.6034 -1.36267 86.0633
lradius 34.1534
lwrist 0.933928
lhand -21.4468 -13.3711
lfingers 7.12502
lthumb 4.94292 16.5512
rfemur -23.9666 7.66853 17.678
rtibia 6.07991
rfoot -18.4851 -5.64778
rtoes -30.8058
lfemur -26.0557 -11.3705 -18.1894
ltibia 7.30314
lfoot -6.79204 3.08582
ltoes -41.2315
34
root 9.57706 16.328 9.61056 -152.096 -2.29892 178.207
lowerback -29.3843 -1.60357 -5.62968
upperback -3.76863 -1.2676 -0.816319
thorax 12.0702 -1.27369 1.73233
lowerneck -0.179023 0.420597 -3.21829
upperneck 8.0635 -0.41539 8.66255
head 2.67052 -0.25088 3.42078
rclavicle -4.17448e-015 2.38542e-014
rhumerus -34.1838 -12.8935 -83.8337
rradius 39.5503
rwrist -5.63019
rhand -7.76626 -54.4075
rfingers 7.12502
rthumb 18.1337 -443.582
lclavicle -4.17448e-015 2.38542e-014
lhumerus -28.642 -1.35019 86.0086
lradius 33.8944
lwrist 0.782955
lhand -21.7066 -13.4527
lfingers 7.12502
lthumb 4.6921 16.4754
rfemur -24.0927 7.76442 17.6746
rtibia 6.01606
rfoot -18.4653 -5.85478
rtoes -30.7142
lfemur -26.3238 -11.3817 -18.0946
ltibia 7.44266
lfoot -6.78558 2.99619
ltoes -41.0364
35
root 9.57798 16.3276 9.60536 -152.061 -2.34501 178.221
lowerback -29.4082 -1.6424 -5.65406
upperback -3.7787 -1.31373 -0.803941
thorax 12.0746 -1.29737 1.74203
lowerneck -0.175007 0.434537 -3.22091
upperneck 8.04716 -0.403733 8.73382
head 2.66436 -0.245004 3.44622
rclavicle 1.90336e-014 4.21423e-014
rhumerus -34.2109 -12.6641 -83.9542
rradius 39.1172
rwrist -5.49661
rhand -7.62291 -54.5908
rfingers 7.12502
rthumb 18.2716 -443.753
lclavicle 1.90336e-014 4.21423e-014
lhumerus -28.6555 -1.34179 85.9741
lradius 33.6065
lwrist 0.605176
lhand -22.0776 -13.0131
lfingers 7.12502
lthumb 4.33386 16.9226
rfemur -24.0463 7.75239 17.7079
rtibia 5.92073
rfoot -18.4445 -5.91504
rtoes -30.445
lfemur -26.3456 -11.4042 -18.0559
ltibia 7.47539
lfoot -6.80192 2.99304
ltoes -40.6081
36
root 9.57738 16.3278 9.59687 -152.13 -2.28737 178.224
lowerback -29.4216 -1.64071 -5.67665
upperback -3.72691 -1.29114 -0.811182
thorax 12.141 -1.28613 1.75461
lowerneck -0.185058 0.444475 -3.26449
upperneck 8.0083 -0.395589 8.83949
head 2.65424 -0.240656 3.49137
rclavicle -3.42904e-015 6.75868e-015
rhumerus -34.2386 -12.5404 -84.0304
rradius 38.7794
rwrist -5.20158
rhand -6.94653 -55.7385
rfingers 7.12502
rthumb 18.9222 -444.838
lclavicle -3.42904e-015 6.75868e-015
lhumerus -28.6208 -1.26879 85.9425
lradius 33.2307
lwrist 0.393488
lhand -22.2176 -12.726
lfingers 7.12502
lthumb 4.19869 17.2124
rfemur -23.8988 7.83931 17.7042
rtibia 5.84739
rfoot -18.3659 -6.03185
rtoes -30.4339
lfemur -26.189 -11.3636 -18.0998
ltibia 7.44647
lfoot -6.85499 2.99885
ltoes -40.5067
